# xmcd
#
# Track frame offsets:
# 150
# 4359
# 21422
# 39835
# 56792
# 74429
# 92603
# 110296
# 127889
# 144880
# 162595
# 179964
# 195336
# 213018
# 235121
# 250094
# 267516
# 284685
# 298560
#
# Disc length: 4163 seconds
#
#
# Revision: 0
# Processed by: cddbd v1.5.2PL0 Copyright (c) Steve Scherf et al.
# Submitted via: FreeRIP 2.944 
#
DISCID=19104113
DTITLE=McMurtry-L-LD3 - Dead-Mans-Walk01
DYEAR=1995
DGENRE=Booty Bass
TTITLE0=0101
TTITLE1=0102
TTITLE2=0103
TTITLE3=0104
TTITLE4=0105
TTITLE5=0106
TTITLE6=0107
TTITLE7=0108
TTITLE8=0109
TTITLE9=0110
TTITLE10=0111
TTITLE11=0112
TTITLE12=0113
TTITLE13=0114
TTITLE14=0115
TTITLE15=0116
TTITLE16=0117
TTITLE17=0118
TTITLE18=0119
EXTD=Dead Man's Walk - Lonesome Dove series 3\n1995 read by Jack Garrett by Larry McMurtry\nrecorded books - chrono1
EXTT0=
EXTT1=
EXTT2=
EXTT3=
EXTT4=
EXTT5=
EXTT6=
EXTT7=
EXTT8=
EXTT9=
EXTT10=
EXTT11=
EXTT12=
EXTT13=
EXTT14=
EXTT15=
EXTT16=
EXTT17=
EXTT18=
PLAYORDER=
